<svg xmlns="http://www.w3.org/2000/svg" width="442.37" height="35" viewBox="0 0 442.37 35"><rect class="svg__rect" x="0" y="0" width="115.31" height="35" fill="#31C4F3"/><rect class="svg__rect" x="113.31" y="0" width="329.06" height="35" fill="#389AD5"/><path class="svg__text" d="M15.69 22L14.22 22L14.22 13.47L16.14 13.47L18.60 20.01L21.06 13.47L22.97 13.47L22.97 22L21.49 22L21.49 19.19L21.64 15.43L19.12 22L18.06 22L15.55 15.43L15.69 19.19L15.69 22ZM28.49 22L26.95 22L30.17 13.47L31.50 13.47L34.73 22L33.18 22L32.49 20.01L29.18 20.01L28.49 22ZM30.83 15.28L29.60 18.82L32.07 18.82L30.83 15.28ZM41.14 22L38.69 22L38.69 13.47L41.21 13.47Q42.34 13.47 43.21 13.97Q44.09 14.48 44.57 15.40Q45.05 16.33 45.05 17.52L45.05 17.52L45.05 17.95Q45.05 19.16 44.57 20.08Q44.08 21.00 43.19 21.50Q42.30 22 41.14 22L41.14 22ZM40.17 14.66L40.17 20.82L41.14 20.82Q42.30 20.82 42.93 20.09Q43.55 19.36 43.56 17.99L43.56 17.99L43.56 17.52Q43.56 16.13 42.96 15.40Q42.35 14.66 41.21 14.66L41.21 14.66L40.17 14.66ZM55.09 22L49.51 22L49.51 13.47L55.05 13.47L55.05 14.66L51.00 14.66L51.00 17.02L54.50 17.02L54.50 18.19L51.00 18.19L51.00 20.82L55.09 20.82L55.09 22ZM66.65 22L64.68 13.47L66.15 13.47L67.47 19.88L69.10 13.47L70.34 13.47L71.96 19.89L73.27 13.47L74.74 13.47L72.77 22L71.35 22L69.73 15.77L68.07 22L66.65 22ZM80.38 22L78.90 22L78.90 13.47L80.38 13.47L80.38 22ZM86.87 14.66L84.23 14.66L84.23 13.47L91.00 13.47L91.00 14.66L88.34 14.66L88.34 22L86.87 22L86.87 14.66ZM96.24 22L94.75 22L94.75 13.47L96.24 13.47L96.24 17.02L100.05 17.02L100.05 13.47L101.53 13.47L101.53 22L100.05 22L100.05 18.21L96.24 18.21L96.24 22Z" fill="#FFFFFF"/><path class="svg__text" d="M131.47 22L127.50 22L127.50 13.60L131.47 13.60Q132.85 13.60 133.92 14.12Q134.99 14.63 135.58 15.58Q136.16 16.53 136.16 17.80L136.16 17.80Q136.16 19.07 135.58 20.02Q134.99 20.97 133.92 21.48Q132.85 22 131.47 22L131.47 22ZM129.88 15.50L129.88 20.10L131.38 20.10Q132.45 20.10 133.11 19.49Q133.76 18.88 133.76 17.80L133.76 17.80Q133.76 16.72 133.11 16.11Q132.45 15.50 131.38 15.50L131.38 15.50L129.88 15.50ZM143.27 22L140.89 22L140.89 13.60L144.74 13.60Q145.88 13.60 146.72 13.98Q147.55 14.35 148.01 15.06Q148.47 15.76 148.47 16.71L148.47 16.71Q148.47 17.62 148.04 18.30Q147.61 18.98 146.82 19.36L146.82 19.36L148.63 22L146.09 22L144.57 19.77L143.27 19.77L143.27 22ZM143.27 15.47L143.27 17.93L144.59 17.93Q145.32 17.93 145.69 17.61Q146.07 17.29 146.07 16.71L146.07 16.71Q146.07 16.12 145.69 15.79Q145.32 15.47 144.59 15.47L144.59 15.47L143.27 15.47ZM155.63 22L153.26 22L153.26 13.60L159.85 13.60L159.85 15.44L155.63 15.44L155.63 17.28L159.34 17.28L159.34 19.12L155.63 19.12L155.63 22ZM164.32 18.71L164.32 18.71Q164.32 17.07 164.73 15.62Q165.13 14.18 165.87 13.09L165.87 13.09L168.06 13.09Q167.28 14.48 166.92 15.84Q166.56 17.20 166.56 18.71L166.56 18.71Q166.56 20.22 166.92 21.59Q167.28 22.95 168.06 24.33L168.06 24.33L165.87 24.33Q165.13 23.25 164.73 21.80Q164.32 20.35 164.32 18.71ZM176.32 22L172.35 22L172.35 13.60L176.32 13.60Q177.71 13.60 178.77 14.12Q179.84 14.63 180.43 15.58Q181.02 16.53 181.02 17.80L181.02 17.80Q181.02 19.07 180.43 20.02Q179.84 20.97 178.77 21.48Q177.71 22 176.32 22L176.32 22ZM174.73 15.50L174.73 20.10L176.23 20.10Q177.31 20.10 177.96 19.49Q178.62 18.88 178.62 17.80L178.62 17.80Q178.62 16.72 177.96 16.11Q177.31 15.50 176.23 15.50L176.23 15.50L174.73 15.50ZM184.67 20.93L184.67 20.93L185.96 19.40Q186.63 20.27 187.40 20.27L187.40 20.27Q187.41 20.27 187.42 20.27L187.42 20.27Q187.93 20.27 188.20 19.96Q188.47 19.65 188.47 19.05L188.47 19.05L188.47 15.44L185.57 15.44L185.57 13.60L190.83 13.60L190.83 18.91Q190.83 20.54 190.00 21.36Q189.18 22.17 187.59 22.17L187.59 22.17Q186.66 22.17 185.90 21.85Q185.15 21.53 184.67 20.93ZM197.33 22L194.90 22L198.61 13.60L200.96 13.60L204.67 22L202.20 22L201.54 20.37L197.99 20.37L197.33 22ZM199.77 15.93L198.68 18.61L200.85 18.61L199.77 15.93ZM211.16 22L208.83 22L208.83 13.60L210.78 13.60L214.49 18.07L214.49 13.60L216.82 13.60L216.82 22L214.87 22L211.16 17.52L211.16 22ZM221.55 17.80L221.55 17.80Q221.55 16.54 222.15 15.54Q222.75 14.55 223.82 13.99Q224.89 13.43 226.23 13.43L226.23 13.43Q227.41 13.43 228.34 13.83Q229.28 14.22 229.90 14.97L229.90 14.97L228.39 16.33Q227.55 15.40 226.37 15.40L226.37 15.40Q226.36 15.40 226.35 15.40L226.35 15.40Q225.27 15.40 224.61 16.06Q223.95 16.71 223.95 17.80L223.95 17.80Q223.95 18.50 224.25 19.04Q224.55 19.59 225.09 19.89Q225.63 20.20 226.33 20.20L226.33 20.20Q227.01 20.20 227.61 19.93L227.61 19.93L227.61 17.62L229.71 17.62L229.71 21.10Q228.99 21.61 228.05 21.89Q227.12 22.17 226.18 22.17L226.18 22.17Q224.86 22.17 223.81 21.61Q222.75 21.05 222.15 20.05Q221.55 19.06 221.55 17.80ZM234.27 17.80L234.27 17.80Q234.27 16.55 234.88 15.55Q235.48 14.56 236.54 14.00Q237.61 13.43 238.94 13.43L238.94 13.43Q240.27 13.43 241.33 14.00Q242.39 14.56 243.00 15.55Q243.61 16.55 243.61 17.80L243.61 17.80Q243.61 19.05 243.00 20.04Q242.39 21.04 241.33 21.60Q240.27 22.17 238.94 22.17L238.94 22.17Q237.61 22.17 236.54 21.60Q235.48 21.04 234.88 20.04Q234.27 19.05 234.27 17.80ZM236.67 17.80L236.67 17.80Q236.67 18.51 236.97 19.05Q237.27 19.60 237.79 19.90Q238.30 20.20 238.94 20.20L238.94 20.20Q239.58 20.20 240.09 19.90Q240.61 19.60 240.91 19.05Q241.20 18.51 241.20 17.80L241.20 17.80Q241.20 17.09 240.91 16.54Q240.61 16 240.09 15.70Q239.58 15.40 238.94 15.40L238.94 15.40Q238.30 15.40 237.79 15.70Q237.27 16 236.97 16.54Q236.67 17.09 236.67 17.80ZM257.69 22L255.31 22L255.31 13.60L259.15 13.60Q260.29 13.60 261.13 13.98Q261.97 14.35 262.43 15.06Q262.88 15.76 262.88 16.71L262.88 16.71Q262.88 17.62 262.46 18.30Q262.03 18.98 261.24 19.36L261.24 19.36L263.05 22L260.51 22L258.98 19.77L257.69 19.77L257.69 22ZM257.69 15.47L257.69 17.93L259.01 17.93Q259.74 17.93 260.11 17.61Q260.48 17.29 260.48 16.71L260.48 16.71Q260.48 16.12 260.11 15.79Q259.74 15.47 259.01 15.47L259.01 15.47L257.69 15.47ZM274.42 22L267.67 22L267.67 13.60L274.26 13.60L274.26 15.44L270.03 15.44L270.03 16.85L273.76 16.85L273.76 18.63L270.03 18.63L270.03 20.17L274.42 20.17L274.42 22ZM278.63 21.24L278.63 21.24L279.41 19.49Q279.98 19.86 280.72 20.09Q281.46 20.32 282.19 20.32L282.19 20.32Q283.55 20.32 283.56 19.64L283.56 19.64Q283.56 19.28 283.17 19.11Q282.78 18.93 281.91 18.74L281.91 18.74Q280.96 18.53 280.33 18.30Q279.69 18.06 279.24 17.55Q278.78 17.03 278.78 16.16L278.78 16.16Q278.78 15.39 279.20 14.77Q279.62 14.15 280.45 13.79Q281.29 13.43 282.50 13.43L282.50 13.43Q283.32 13.43 284.13 13.62Q284.93 13.80 285.55 14.17L285.55 14.17L284.82 15.93Q283.62 15.28 282.48 15.28L282.48 15.28Q281.78 15.28 281.45 15.49Q281.13 15.70 281.13 16.04L281.13 16.04Q281.13 16.37 281.51 16.54Q281.90 16.71 282.75 16.89L282.75 16.89Q283.71 17.10 284.34 17.33Q284.97 17.56 285.43 18.07Q285.89 18.58 285.89 19.46L285.89 19.46Q285.89 20.21 285.48 20.83Q285.06 21.44 284.22 21.80Q283.37 22.17 282.17 22.17L282.17 22.17Q281.15 22.17 280.19 21.92Q279.23 21.67 278.63 21.24ZM292.26 15.48L289.68 15.48L289.68 13.60L297.20 13.60L297.20 15.48L294.64 15.48L294.64 22L292.26 22L292.26 15.48ZM310.93 22L308.55 22L308.55 13.60L315.14 13.60L315.14 15.44L310.93 15.44L310.93 17.28L314.63 17.28L314.63 19.12L310.93 19.12L310.93 22ZM322.11 22L319.73 22L319.73 13.60L323.58 13.60Q324.72 13.60 325.56 13.98Q326.39 14.35 326.85 15.06Q327.31 15.76 327.31 16.71L327.31 16.71Q327.31 17.62 326.88 18.30Q326.45 18.98 325.66 19.36L325.66 19.36L327.47 22L324.93 22L323.41 19.77L322.11 19.77L322.11 22ZM322.11 15.47L322.11 17.93L323.43 17.93Q324.16 17.93 324.53 17.61Q324.91 17.29 324.91 16.71L324.91 16.71Q324.91 16.12 324.53 15.79Q324.16 15.47 323.43 15.47L323.43 15.47L322.11 15.47ZM333.51 22L331.09 22L334.80 13.60L337.14 13.60L340.86 22L338.39 22L337.73 20.37L334.18 20.37L333.51 22ZM335.95 15.93L334.87 18.61L337.03 18.61L335.95 15.93ZM347.21 22L345.01 22L345.01 13.60L346.97 13.60L349.92 18.45L352.80 13.60L354.75 13.60L354.78 22L352.60 22L352.57 17.55L350.41 21.17L349.36 21.17L347.21 17.67L347.21 22ZM366.68 22L359.94 22L359.94 13.60L366.53 13.60L366.53 15.44L362.29 15.44L362.29 16.85L366.03 16.85L366.03 18.63L362.29 18.63L362.29 20.17L366.68 20.17L366.68 22ZM373.57 22L370.84 13.60L373.29 13.60L374.98 18.96L376.76 13.60L378.94 13.60L380.63 19.01L382.40 13.60L384.67 13.60L381.94 22L379.40 22L377.79 16.89L376.11 22L373.57 22ZM388.75 17.80L388.75 17.80Q388.75 16.55 389.35 15.55Q389.96 14.56 391.02 14.00Q392.08 13.43 393.41 13.43L393.41 13.43Q394.74 13.43 395.81 14.00Q396.87 14.56 397.48 15.55Q398.08 16.55 398.08 17.80L398.08 17.80Q398.08 19.05 397.48 20.04Q396.87 21.04 395.81 21.60Q394.75 22.17 393.41 22.17L393.41 22.17Q392.08 22.17 391.02 21.60Q389.96 21.04 389.35 20.04Q388.75 19.05 388.75 17.80ZM391.15 17.80L391.15 17.80Q391.15 18.51 391.45 19.05Q391.75 19.60 392.27 19.90Q392.78 20.20 393.41 20.20L393.41 20.20Q394.05 20.20 394.57 19.90Q395.08 19.60 395.38 19.05Q395.68 18.51 395.68 17.80L395.68 17.80Q395.68 17.09 395.38 16.54Q395.08 16 394.57 15.70Q394.05 15.40 393.41 15.40L393.41 15.40Q392.78 15.40 392.26 15.70Q391.75 16 391.45 16.54Q391.15 17.09 391.15 17.80ZM405.19 22L402.81 22L402.81 13.60L406.66 13.60Q407.80 13.60 408.64 13.98Q409.47 14.35 409.93 15.06Q410.39 15.76 410.39 16.71L410.39 16.71Q410.39 17.62 409.96 18.30Q409.53 18.98 408.74 19.36L408.74 19.36L410.55 22L408.01 22L406.49 19.77L405.19 19.77L405.19 22ZM405.19 15.47L405.19 17.93L406.51 17.93Q407.24 17.93 407.61 17.61Q407.99 17.29 407.99 16.71L407.99 16.71Q407.99 16.12 407.61 15.79Q407.24 15.47 406.51 15.47L406.51 15.47L405.19 15.47ZM417.53 22L415.18 22L415.18 13.60L417.53 13.60L417.53 17.09L420.78 13.60L423.40 13.60L419.97 17.32L423.58 22L420.82 22L418.42 18.95L417.53 19.90L417.53 22ZM429.01 24.33L426.82 24.33Q427.60 22.94 427.96 21.58Q428.32 20.22 428.32 18.71L428.32 18.71Q428.32 17.20 427.96 15.84Q427.60 14.48 426.82 13.09L426.82 13.09L429.01 13.09Q429.75 14.17 430.16 15.62Q430.56 17.07 430.56 18.71L430.56 18.71Q430.56 20.36 430.16 21.80Q429.75 23.25 429.01 24.33L429.01 24.33Z" fill="#FFFFFF" x="126.31"/></svg>